<svg xmlns="http://www.w3.org/2000/svg" width="152" height="32" viewBox="0 0 152 32" fill="none">
  <path d="M11.3273 0C14.0536 0 16.3046 2.10394 16.6438 4.82693V5.33333H11.6425C11.5225 5.33333 11.4062 5.37633 11.3135 5.45497L9.22397 7.2289C9.06818 7.15335 8.89418 7.11111 8.71061 7.11111C8.04388 7.11111 7.50338 7.66827 7.50338 8.35555C7.50338 9.04284 8.04388 9.6 8.71061 9.6C9.37735 9.6 9.91784 9.04284 9.91784 8.35555C9.91784 8.25096 9.90532 8.14938 9.88175 8.05231L11.8279 6.4H16.6438V15.4667L6.86985 15.4667C6.6761 15.0463 6.26037 14.7556 5.77877 14.7556C5.11204 14.7556 4.57154 15.3127 4.57154 16C4.57154 16.6873 5.11204 17.2444 5.77877 17.2444C6.2603 17.2444 6.67598 16.9538 6.86976 16.5335L16.6438 16.5333V25.6H11.8279L9.88175 23.9477C9.90532 23.8506 9.91784 23.749 9.91784 23.6444C9.91784 22.9572 9.37735 22.4 8.71061 22.4C8.04388 22.4 7.50338 22.9572 7.50338 23.6444C7.50338 24.3317 8.04388 24.8889 8.71061 24.8889C8.89418 24.8889 9.06818 24.8467 9.22397 24.7711L11.3135 26.545C11.4062 26.6237 11.5225 26.6667 11.6425 26.6667H16.6438V27.1733C16.2662 29.9022 13.985 32 11.2408 32C8.71143 32 6.58468 30.2177 5.97148 27.8018C4.13664 26.9753 2.85391 25.0839 2.85391 22.8827C2.85391 22.3637 2.92521 21.862 3.05833 21.3873C1.41783 20.5057 0.290387 18.7446 0.260614 16.7084L0.26001 16.5333C0.26001 14.3063 1.58418 12.3981 3.46518 11.5997C3.11903 10.9451 2.90557 10.2046 2.86215 9.41703L2.85738 9.31091C2.85045 9.20079 2.84693 9.08971 2.84693 8.97778C2.84693 6.77123 4.21527 4.89413 6.12496 4.19895C6.70567 1.78719 8.8146 0 11.3273 0Z" fill="url(#paint0_linear_6455_1834)"/>
  <path fill-rule="evenodd" clip-rule="evenodd" d="M28.9017 4.26062C28.3424 1.81767 26.219 0 23.685 0C20.9587 0 18.7077 2.10394 18.3684 4.82693V27.1733C18.7461 29.9022 21.0273 32 23.7714 32C26.3009 32 28.4276 30.2177 29.0408 27.8018C30.8756 26.9753 32.1584 25.0839 32.1584 22.8827C32.1584 22.3637 32.0871 21.862 31.954 21.3873C33.6166 20.4938 34.7523 18.6968 34.7523 16.6257C34.7523 14.762 33.8328 13.1204 32.4373 12.1596C32.4308 12.2632 32.3952 12.3659 32.3289 12.4539C31.2899 13.8332 30.1157 14.7013 28.8231 15.0564C28.7994 15.1209 28.7761 15.1911 28.7539 15.2665C28.6438 15.6421 28.5865 16.0606 28.6076 16.5094C28.6252 16.8836 28.6973 17.2635 28.8322 17.6469C28.9301 17.9253 28.7912 18.233 28.5219 18.3342C28.2527 18.4355 27.955 18.2919 27.8571 18.0135C27.6861 17.5273 27.5939 17.0414 27.5713 16.5615C27.5492 16.0918 27.5937 15.6476 27.688 15.2364C26.3824 15.2972 24.9717 14.885 23.4709 13.9987C23.2221 13.8518 23.1356 13.5242 23.2777 13.267C23.4198 13.0099 23.7367 12.9204 23.9855 13.0674L24.0775 13.1211C27.1062 14.8698 29.5288 14.296 31.5171 11.6557C31.9255 10.9054 32.1584 10.0395 32.1584 9.11732C32.1584 6.89358 30.8041 4.99684 28.9017 4.26062ZM20.948 22.3313C20.8416 22.0563 20.9711 21.7442 21.2371 21.6342C21.4937 21.5282 21.7835 21.6488 21.8993 21.9042L21.9114 21.933L21.9337 21.981C21.9792 22.0743 22.0468 22.1864 22.1377 22.3042C22.2871 22.498 22.4699 22.6667 22.6882 22.7956C23.222 23.111 23.9185 23.1672 24.8362 22.8513C25.5888 22.3478 26.5252 22.1078 27.6353 22.141C27.9217 22.1495 28.1471 22.3965 28.1389 22.6926C28.1306 22.9886 27.8917 23.2217 27.6053 23.2131C25.5636 23.1521 24.3599 24.155 23.8721 26.3415C23.8077 26.6301 23.5291 26.8102 23.25 26.7436C22.9708 26.677 22.7967 26.3891 22.861 26.1005C23.0316 25.336 23.2866 24.679 23.6233 24.1322C23.0832 24.1186 22.5991 23.9784 22.1735 23.7269C21.5762 23.3742 21.1938 22.8782 20.978 22.4018L20.9731 22.3909L20.948 22.3313ZM23.3125 5.00538C23.0261 5.01233 22.7993 5.25802 22.8061 5.55413C22.8279 6.5158 23.0286 7.34156 23.402 8.02522C22.5177 8.08986 21.654 8.57184 20.8681 9.54027C20.684 9.7672 20.7127 10.1055 20.9322 10.2958C21.1517 10.4862 21.4789 10.4566 21.6631 10.2296C22.3042 9.43948 22.941 9.10498 23.5671 9.09078C23.8185 9.08508 24.0592 9.13235 24.2838 9.21888C24.4204 9.2715 24.5342 9.33159 24.6197 9.38732L24.6627 9.41663L24.6894 9.43619C24.7011 9.44425 24.7131 9.45176 24.7252 9.45852C25.3132 9.84765 26.033 10.1214 26.8807 10.2757C27.1629 10.3271 27.4319 10.1323 27.4816 9.84057C27.5313 9.54887 27.3428 9.27074 27.0607 9.21937C26.3421 9.08854 25.7485 8.8672 25.2753 8.55093L25.2292 8.51775L25.1763 8.48202C24.3076 7.85389 23.874 6.88001 23.8433 5.52897C23.8366 5.23285 23.599 4.99844 23.3125 5.00538Z" fill="url(#paint1_linear_6455_1834)"/>
  <path d="M61.945 9.35792C61.2605 9.35792 60.687 9.14522 60.2245 8.71983C59.7804 8.27595 59.5584 7.73034 59.5584 7.08301C59.5584 6.43568 59.7804 5.89932 60.2245 5.47393C60.687 5.03005 61.2605 4.80811 61.945 4.80811C62.6296 4.80811 63.1938 5.03005 63.6379 5.47393C64.1004 5.89932 64.3316 6.43568 64.3316 7.08301C64.3316 7.73034 64.1004 8.27595 63.6379 8.71983C63.1938 9.14522 62.6296 9.35792 61.945 9.35792Z" fill="black"/>
  <path d="M63.8599 11.1889V25.7584H59.9747V11.1889H63.8599Z" fill="black"/>
  <path d="M46.0886 25.019C47.1802 25.4814 48.4012 25.7126 49.7518 25.7126C51.1764 25.7126 52.4067 25.4537 53.4427 24.9358C54.4788 24.3995 55.2651 23.6874 55.8016 22.7996C56.3381 21.9119 56.6064 20.9501 56.6064 19.9144C56.6064 18.7122 56.3196 17.5812 55.7461 16.8414C55.1726 16.1016 54.488 15.5467 53.6925 15.1768C52.8969 14.8069 51.8702 14.437 50.6121 14.0671C49.687 13.7897 48.9655 13.5493 48.4475 13.3458C47.948 13.1239 47.5224 12.8464 47.1709 12.5135C46.8379 12.1621 46.6714 11.5675 46.6714 11.0496C46.6714 10.3098 46.8934 9.74571 47.3374 9.35731C47.8 8.96891 48.4105 8.77471 49.169 8.77471C50.0386 8.77471 50.7323 8.99666 51.2504 9.44054C51.7869 9.86593 52.0737 10.4115 52.1107 11.0774H56.3844C56.2549 9.33882 55.5611 7.98867 54.303 7.02692C53.0635 6.04668 51.4446 5.55656 49.4465 5.55656C48.1145 5.55656 46.9304 5.78774 45.8944 6.25012C44.8583 6.69401 44.0535 7.34134 43.48 8.19211C42.9065 9.04289 42.6197 10.0416 42.6197 11.1883C42.6197 12.409 42.8972 13.5493 43.4523 14.2891C44.0258 15.0104 44.7011 15.556 45.4781 15.9259C46.2736 16.2773 47.3004 16.6379 48.5585 17.0079C49.4835 17.2668 50.2051 17.5072 50.7231 17.7292C51.2596 17.9326 51.7036 18.2193 52.0552 18.5892C52.4067 18.9591 52.5824 19.5907 52.5824 20.1641C52.5824 20.8669 52.3234 21.4402 51.8054 21.8841C51.2874 22.3095 50.5751 22.5222 49.6685 22.5222C48.7805 22.5222 48.0775 22.291 47.5594 21.8286C47.0599 21.3663 46.7824 20.7374 46.7269 19.9421H42.5642C42.5827 21.1258 42.9065 22.1523 43.5355 23.0216C44.1645 23.8908 45.0156 24.5567 46.0886 25.019Z" fill="black"/>
  <path fill-rule="evenodd" clip-rule="evenodd" d="M67.6152 13.6445C67.0047 14.8467 66.6994 16.2246 66.6994 17.7782C66.6994 19.3503 67.0047 20.7467 67.6152 21.9673C68.2442 23.1695 69.0953 24.1035 70.1683 24.7694C71.2414 25.4352 72.4254 25.7681 73.7205 25.7681C74.8675 25.7681 75.8758 25.5369 76.7454 25.0745C77.6149 24.6122 78.2902 24.0018 78.7712 23.2435V25.5184H82.7119V4.98879H78.7712V12.2851C78.2347 11.5638 77.5132 10.9905 76.6066 10.5651C75.7001 10.1212 74.7473 9.89925 73.7482 9.89925C72.4347 9.89925 71.2414 10.2229 70.1683 10.8702C69.0953 11.5176 68.2442 12.4423 67.6152 13.6445ZM78.244 15.4201C78.614 16.0859 78.799 16.8904 78.799 17.8337C78.799 18.7769 78.614 19.5907 78.244 20.275C77.8739 20.9409 77.3744 21.4587 76.7454 21.8286C76.1163 22.18 75.4411 22.3557 74.7195 22.3557C74.0165 22.3557 73.3505 22.1708 72.7214 21.8009C72.1109 21.431 71.6114 20.9039 71.2229 20.2196C70.8528 19.5167 70.6678 18.7029 70.6678 17.7782C70.6678 16.8534 70.8528 16.0581 71.2229 15.3923C71.6114 14.708 72.1109 14.1901 72.7214 13.8387C73.332 13.4873 73.998 13.3116 74.7195 13.3116C75.4411 13.3116 76.1163 13.4966 76.7454 13.8665C77.3744 14.2179 77.8739 14.7357 78.244 15.4201Z" fill="black"/>
  <path d="M109.462 10.6206C108.666 11.0829 108.019 11.721 107.519 12.5348V10.1489H103.634V25.5184H107.519V17.8614C107.519 16.4373 107.825 15.4386 108.435 14.8652C109.064 14.2919 109.989 14.0052 111.21 14.0052H112.237V9.927C111.201 9.927 110.276 10.1582 109.462 10.6206Z" fill="black"/>
  <path fill-rule="evenodd" clip-rule="evenodd" d="M100.56 15.9087C100.676 16.4513 100.744 16.9473 100.764 17.3969L89.7738 19.7482C90.0964 20.814 90.6581 21.5827 91.4591 22.0544C92.26 22.5262 93.1489 22.6575 94.1259 22.4485C95.9679 22.0544 96.6388 21.1681 96.9987 19.9864H100.764C100.64 21.5262 100.041 22.3625 99.0785 23.2993C97.952 24.3963 96.6714 25.1949 94.8804 25.5781C93.433 25.8877 92.0628 25.8499 90.7695 25.4646C89.4905 25.0573 88.3996 24.3355 87.4968 23.2993C86.6122 22.2592 86.0054 20.9705 85.6766 19.4331C85.3439 17.8777 85.3685 16.4445 85.7502 15.1335C86.132 13.8224 86.825 12.7285 87.8294 11.8516C88.8338 10.9748 90.0777 10.3777 91.5612 10.0603C92.9905 9.75452 94.3317 9.78911 95.5849 10.1641C96.8562 10.5352 97.9213 11.2246 98.7801 12.2324C99.6531 13.2183 100.246 14.4437 100.56 15.9087ZM96.3927 15.6653C96.1657 14.6926 95.6465 13.9903 94.8353 13.5587C94.0201 13.1089 93.115 12.9905 92.12 13.2033C91.1792 13.4046 90.4451 13.8643 89.9176 14.5824C89.4043 15.2785 89.1836 16.1484 89.2555 17.1922L96.3927 15.6653Z" fill="black"/>
  <defs>
    <linearGradient id="paint0_linear_6455_1834" x1="29.6099" y1="31.1389" x2="2.86238" y2="5.86569" gradientUnits="userSpaceOnUse">
      <stop stop-color="#32C5FF"/>
      <stop offset="0.25" stop-color="#5666F5"/>
      <stop offset="0.523727" stop-color="#8A57EA"/>
      <stop offset="0.820607" stop-color="#EB35CE"/>
      <stop offset="1" stop-color="#F7B500"/>
    </linearGradient>
    <linearGradient id="paint1_linear_6455_1834" x1="29.6099" y1="31.1389" x2="2.86238" y2="5.86569" gradientUnits="userSpaceOnUse">
      <stop stop-color="#32C5FF"/>
      <stop offset="0.25" stop-color="#5666F5"/>
      <stop offset="0.523727" stop-color="#8A57EA"/>
      <stop offset="0.820607" stop-color="#EB35CE"/>
      <stop offset="1" stop-color="#F7B500"/>
    </linearGradient>
  </defs>
</svg>